<svg width="38" height="38" viewBox="0 0 38 38" fill="none" xmlns="http://www.w3.org/2000/svg">
<circle cx="19" cy="19" r="19" fill="#603F8B"/>
<path d="M25.7099 14.2101C25.617 14.1164 25.5064 14.042 25.3845 13.9912C25.2627 13.9404 25.132 13.9143 24.9999 13.9143C24.8679 13.9143 24.7372 13.9404 24.6154 13.9912C24.4935 14.042 24.3829 14.1164 24.29 14.2101L16.84 21.6701L13.7099 18.5301C13.6134 18.4369 13.4995 18.3636 13.3746 18.3143C13.2498 18.2651 13.1165 18.241 12.9823 18.2433C12.8481 18.2457 12.7157 18.2744 12.5926 18.3279C12.4695 18.3814 12.3582 18.4586 12.2649 18.5551C12.1717 18.6516 12.0984 18.7656 12.0492 18.8904C12 19.0153 11.9759 19.1486 11.9782 19.2828C11.9805 19.417 12.0092 19.5494 12.0627 19.6725C12.1162 19.7955 12.1934 19.9069 12.2899 20.0001L16.13 23.8401C16.2229 23.9338 16.3335 24.0082 16.4554 24.059C16.5772 24.1098 16.7079 24.1359 16.84 24.1359C16.972 24.1359 17.1027 24.1098 17.2245 24.059C17.3464 24.0082 17.457 23.9338 17.55 23.8401L25.7099 15.6801C25.8115 15.5865 25.8925 15.4728 25.9479 15.3463C26.0033 15.2198 26.0319 15.0832 26.0319 14.9451C26.0319 14.807 26.0033 14.6704 25.9479 14.5439C25.8925 14.4174 25.8115 14.3037 25.7099 14.2101Z" fill="white"/>
</svg>
