<svg width="24" height="24" viewBox="0 0 24 24" fill="none" xmlns="http://www.w3.org/2000/svg">
<path fill-rule="evenodd" clip-rule="evenodd" d="M12.2882 4.00494L12.002 4.00012C7.86108 4.00012 4.12926 6.9232 2.06091 11.706C1.9797 11.8938 1.9797 12.1065 2.06091 12.2943L2.20424 12.6169C4.24638 17.0933 7.77544 19.8645 11.7118 19.9953L11.998 20.0001C16.1389 20.0001 19.8707 17.077 21.9391 12.2943C22.0213 12.1041 22.0202 11.8885 21.9361 11.6992L21.7968 11.3858C19.7497 6.90103 16.2192 4.13559 12.2882 4.00494ZM12.009 5.48955L12.2479 5.49469L12.5149 5.50858C15.7122 5.73497 18.6525 8.10566 20.429 11.9992L20.4197 12.0233C18.5987 16.0006 15.5569 18.3854 12.2589 18.5051L12.004 18.5089L11.7469 18.5055L11.4806 18.4916C8.38271 18.2722 5.52637 16.0345 3.73914 12.3598L3.57 11.9992L3.72658 11.6663C5.61118 7.77328 8.69148 5.4904 12.009 5.48955ZM11.9995 8.11363C9.83908 8.11363 8.08849 9.8533 8.08849 12.0004C8.08849 14.1466 9.83927 15.8861 11.9995 15.8861C14.1598 15.8861 15.9115 14.1465 15.9115 12.0004C15.9115 9.85341 14.16 8.11363 11.9995 8.11363ZM11.9995 9.60391C13.3317 9.60391 14.4115 10.6765 14.4115 12.0003C14.4115 13.3233 13.3316 14.3958 11.9995 14.3958C10.6677 14.3958 9.58852 13.3235 9.58852 12.0003C9.58852 10.6763 10.6676 9.60391 11.9995 9.60391Z" fill="#A16AE8"/>
</svg>
