<svg width="120" height="55" viewBox="0 0 120 55" fill="none" xmlns="http://www.w3.org/2000/svg">
<path d="M10.7628 53.7713H0V23.9667H10.8058C15.3185 23.9667 18.9414 25.3123 21.6746 28.0036C24.4078 30.6948 25.7744 34.3254 25.7744 38.8955C25.7744 43.4655 24.4078 47.0884 21.6746 49.7642C18.9414 52.44 15.3041 53.7757 10.7628 53.7713ZM6.64312 47.5057H10.5111C12.9529 47.5057 14.9498 46.776 16.5018 45.3167C18.0539 43.8574 18.8321 41.7137 18.8365 38.8856C18.8365 36.0287 18.0583 33.8706 16.5018 32.4113C14.9454 30.952 12.9484 30.2223 10.5111 30.2223H6.64312V47.5057Z" fill="#603F8B"/>
<path d="M41.9219 53.7712C41.7929 53.078 41.7363 52.3733 41.753 51.6684C41.21 52.5416 40.3957 53.2128 39.4349 53.5792C38.3967 54.0186 37.2804 54.2438 36.1531 54.2415C33.687 54.2415 31.7464 53.4632 30.3312 51.9068C28.9161 50.3503 28.2085 48.4064 28.2085 46.075V32.8716H34.5966V44.7305C34.5557 45.6758 34.8632 46.6033 35.4609 47.3368C36.0328 47.9991 36.8662 48.3302 37.9612 48.3302C38.4311 48.3524 38.9005 48.2754 39.3387 48.1042C39.7768 47.9331 40.1741 47.6716 40.5046 47.3368C40.8255 46.9896 41.0745 46.5823 41.2371 46.1384C41.3996 45.6945 41.4726 45.2227 41.4517 44.7504V32.8517H47.8431V50.0059C47.8361 51.2575 47.9058 52.5083 48.0517 53.7514L41.9219 53.7712Z" fill="#603F8B"/>
<path d="M59.4535 26.7848V32.8815H63.5334V38.4749H59.4535V46.2969C59.4535 47.754 60.2262 48.4826 61.7717 48.4826C62.3375 48.4755 62.9008 48.4044 63.4507 48.2706V53.5692C62.6658 53.96 61.5597 54.1587 60.139 54.1587C57.9799 54.1587 56.2777 53.556 55.0325 52.3505C53.7873 51.1451 53.1637 49.5047 53.1614 47.4295V38.4881H49.4458V32.8947H50.4989C51.5619 32.8947 52.37 32.5636 52.9164 31.9509C53.4816 31.2588 53.7727 30.3832 53.7343 29.4904V26.7848H59.4535Z" fill="#603F8B"/>
<path d="M72.783 53.7712H66.3916V32.8715H72.783V53.7712Z" fill="#603F8B"/>
<path d="M88.5928 38.2531H84.0492V53.7713H77.6578V38.2531H74.3462V32.8717H77.6578V31.0635C77.6578 28.635 78.3665 26.68 79.7839 25.1986C81.2012 23.7172 83.1562 22.981 85.6488 22.9898C87.0485 22.9898 88.0574 23.1443 88.6756 23.4534V28.6692C88.0565 28.5206 87.4213 28.4495 86.7846 28.4573C86.0933 28.4448 85.4183 28.6678 84.8705 29.0898C84.3241 29.507 84.0492 30.2389 84.0492 31.2755V32.8717H88.5928V38.2531Z" fill="#603F8B"/>
<path d="M103.714 53.7713C103.588 53.0777 103.532 52.3732 103.548 51.6684C103.004 52.5405 102.19 53.2114 101.23 53.5792C100.193 54.0189 99.0776 54.2442 97.9513 54.2416C95.4853 54.2416 93.5436 53.4633 92.1262 51.9068C90.7088 50.3504 90.0012 48.4098 90.0034 46.085V32.8816H96.428V44.7405C96.387 45.6858 96.6946 46.6132 97.2923 47.3467C97.8663 48.0091 98.6997 48.3402 99.7926 48.3402C100.262 48.3624 100.732 48.2854 101.17 48.1142C101.608 47.9431 102.005 47.6816 102.336 47.3467C102.657 46.9996 102.906 46.5923 103.068 46.1484C103.231 45.7044 103.304 45.2327 103.283 44.7604V32.8617H109.674V50.0159C109.667 51.2675 109.737 52.5183 109.883 53.7613L103.714 53.7713Z" fill="#603F8B"/>
<path d="M120 53.7712H113.608V23.3275H120V53.7712Z" fill="#603F8B"/>
<path d="M79.1413 3.8121C78.7616 2.87766 78.1567 2.05167 77.3803 1.40777C76.604 0.763879 75.6804 0.322098 74.6919 0.12177C73.7034 -0.0785573 72.6806 -0.0311879 71.7148 0.25966C70.7491 0.550509 69.8703 1.0758 69.1568 1.7887L64.0635 6.88198C62.9691 7.97517 62.3303 9.44295 62.2762 10.9889C62.2221 12.5348 62.7567 14.0437 63.7721 15.2107C64.0587 14.7415 64.4 14.308 64.7887 13.9192L69.882 8.8259C71.0962 7.61444 72.7167 6.89668 74.4297 6.81164C76.1428 6.7266 77.8264 7.28032 79.1546 8.36558C79.7343 6.90199 79.7283 5.27143 79.138 3.8121H79.1413Z" fill="#603F8B"/>
<path d="M78.8068 17.7506L69.68 26.8808L65.6464 22.8472C64.8237 22.022 64.2726 20.9653 64.0666 19.8184C63.8607 18.6715 64.0098 17.4891 64.494 16.4293L64.5834 16.2438L64.6794 16.0617C64.9401 15.5903 65.2656 15.1578 65.6464 14.7768L70.7397 9.68348C71.7728 8.65271 73.1613 8.05644 74.6201 8.01703C76.079 7.97762 77.4976 8.49805 78.5849 9.47153C78.6357 9.51347 78.6854 9.55985 78.7339 9.61063L78.8068 9.68348L78.8797 9.75632C79.9165 10.8331 80.4896 12.2736 80.476 13.7684C80.4624 15.2631 79.8631 16.6929 78.8068 17.7506Z" fill="#A16AE8"/>
</svg>
