<svg width="24" height="25" viewBox="0 0 24 25" fill="none" xmlns="http://www.w3.org/2000/svg">
<g clip-path="url(#clip0_1_1371)">
<path d="M18.6667 20.5H10.6667V15.1666H9.33333V20.5H5.33333V15.1666H4V20.5C4 20.8536 4.14048 21.1927 4.39052 21.4428C4.64057 21.6928 4.97971 21.8333 5.33333 21.8333H18.6667C19.0203 21.8333 19.3594 21.6928 19.6095 21.4428C19.8595 21.1927 20 20.8536 20 20.5V15.1666H18.6667V20.5Z" fill="#603F8B"/>
<path d="M22.5266 9.34663L19.8066 3.90663C19.6962 3.68448 19.526 3.49754 19.3152 3.36681C19.1044 3.23608 18.8613 3.16676 18.6133 3.16663H5.3866C5.13854 3.16676 4.89544 3.23608 4.68463 3.36681C4.47381 3.49754 4.30365 3.68448 4.19326 3.90663L1.47326 9.34663C1.38039 9.53295 1.33245 9.73844 1.33326 9.94663V12C1.33265 12.3115 1.44115 12.6134 1.63993 12.8533C1.9337 13.19 2.29653 13.4596 2.70375 13.6437C3.11097 13.8277 3.55305 13.922 3.99993 13.92C4.72911 13.9211 5.43605 13.669 5.99993 13.2066C6.5638 13.6692 7.27059 13.922 7.99993 13.922C8.72927 13.922 9.43606 13.6692 9.99993 13.2066C10.5638 13.6692 11.2706 13.922 11.9999 13.922C12.7293 13.922 13.4361 13.6692 13.9999 13.2066C14.5638 13.6692 15.2706 13.922 15.9999 13.922C16.7293 13.922 17.4361 13.6692 17.9999 13.2066C18.6294 13.7234 19.4347 13.9761 20.2465 13.9114C21.0584 13.8468 21.8135 13.4699 22.3533 12.86C22.5544 12.621 22.6653 12.319 22.6666 12.0066V9.94663C22.6674 9.73844 22.6195 9.53295 22.5266 9.34663ZM9.99993 10.1V11.1133L9.45326 11.8333C9.28545 12.062 9.06613 12.248 8.81306 12.3762C8.55999 12.5044 8.28028 12.5712 7.99659 12.5712C7.7129 12.5712 7.4332 12.5044 7.18013 12.3762C6.92706 12.248 6.70774 12.062 6.53993 11.8333L5.99993 11.0866V10.1L7.7266 4.49996H10.6666L9.99993 10.1ZM17.9999 11.0866L17.4599 11.8333C17.2921 12.062 17.0728 12.248 16.8197 12.3762C16.5667 12.5044 16.287 12.5712 16.0033 12.5712C15.7196 12.5712 15.4399 12.5044 15.1868 12.3762C14.9337 12.248 14.7144 12.062 14.5466 11.8333L13.9999 11.0866V10.1L13.3333 4.49996H16.2999L17.9999 10.1V11.0866Z" fill="#603F8B"/>
</g>
<defs>
<clipPath id="clip0_1_1371">
<rect width="24" height="24" fill="white" transform="translate(0 0.5)"/>
</clipPath>
</defs>
</svg>
