<svg width="24" height="24" viewBox="0 0 24 24" fill="none" xmlns="http://www.w3.org/2000/svg">
<path d="M20.9622 10.7062L5.24033 1.69687C5.00863 1.56499 4.7463 1.49643 4.4797 1.49808C4.2131 1.49972 3.95164 1.57152 3.72158 1.70624C3.49617 1.83638 3.30903 2.02362 3.17901 2.2491C3.04899 2.47458 2.98068 2.73034 2.98096 2.99062V21.0094C2.98343 21.4056 3.14256 21.7847 3.4236 22.064C3.70464 22.3433 4.08475 22.5 4.48096 22.5C4.74658 22.4991 5.00771 22.4314 5.24033 22.3031L20.9622 13.2937C21.1951 13.1674 21.3896 12.9805 21.5251 12.7528C21.6607 12.5251 21.7322 12.265 21.7322 12C21.7322 11.735 21.6607 11.4749 21.5251 11.2472C21.3896 11.0195 21.1951 10.8326 20.9622 10.7062V10.7062ZM13.4997 13.0594L15.2716 14.8312L7.00283 19.5562L13.4997 13.0594ZM7.00283 4.43437L15.2716 9.16874L13.4997 10.9406L7.00283 4.43437ZM16.6122 14.0531L14.5591 12L16.6122 9.94687L20.2122 12L16.6122 14.0531Z" fill="#F5EEFF"/>
</svg>
